<?xml version="1.0" encoding="UTF-8" standalone="no"?>
<!-- Created with Inkscape (http://www.inkscape.org/) -->

<svg
   width="38.901062mm"
   height="40.324902mm"
   viewBox="0 0 38.901062 40.324902"
   version="1.1"
   id="svg1"
   xml:space="preserve"
   inkscape:version="1.4.2 (f4327f4, 2025-05-13)"
   sodipodi:docname="carsharing_logo.svg"
   xmlns:inkscape="http://www.inkscape.org/namespaces/inkscape"
   xmlns:sodipodi="http://sodipodi.sourceforge.net/DTD/sodipodi-0.dtd"
   xmlns="http://www.w3.org/2000/svg"
   xmlns:svg="http://www.w3.org/2000/svg"><sodipodi:namedview
     id="namedview1"
     pagecolor="#ffffff"
     bordercolor="#000000"
     borderopacity="0.25"
     inkscape:showpageshadow="false"
     inkscape:pageopacity="0.0"
     inkscape:pagecheckerboard="true"
     inkscape:deskcolor="#d1d1d1"
     inkscape:document-units="mm"
     inkscape:zoom="2.1165489"
     inkscape:cx="97.092015"
     inkscape:cy="91.422408"
     inkscape:window-width="1920"
     inkscape:window-height="1009"
     inkscape:window-x="-8"
     inkscape:window-y="-8"
     inkscape:window-maximized="1"
     inkscape:current-layer="layer1"
     showborder="false"
     borderlayer="false"
     labelstyle="default"
     inkscape:antialias-rendering="true" /><defs
     id="defs1"><inkscape:path-effect
       effect="powerclip"
       message=""
       id="path-effect25"
       is_visible="true"
       lpeversion="1"
       inverse="true"
       flatten="false"
       hide_clip="false" /><style
       id="style1">#comp-kt1jrser svg [data-color=&quot;1&quot;]{fill:#2a5b41}</style><clipPath
       clipPathUnits="userSpaceOnUse"
       id="clipPath25"><path
         style="display:none;fill:#ffffff;fill-opacity:1;stroke:#4f5617;stroke-width:0.582012;stroke-dasharray:none;stroke-opacity:1"
         d="m 159.35469,55.281663 c 0.31918,-0.13367 0.60829,-0.406217 0.75695,-0.713301 l 0.13429,-0.276947 0.0446,-0.666234 0.0445,-0.66625 0.0886,-0.07329 0.0886,-0.07329 9.44124,-0.01733 9.44126,-0.01733 0.11596,0.128381 0.11597,0.128384 0.0354,0.708875 0.0354,0.708863 0.19392,0.279747 0.19391,0.279701 0.35344,0.17916 0.3534,0.17916 h 1.05496 1.05498 l 0.28049,-0.099 c 0.43075,-0.152019 0.71091,-0.402793 0.89996,-0.806026 l 0.17113,-0.365279 -0.001,-0.977122 c -7.9e-4,-0.537432 -0.0182,-2.486813 -0.0402,-4.331962 l -0.0399,-3.354829 -0.10725,-0.388258 c -0.15768,-0.571848 -0.59644,-1.348 -1.09521,-1.938762 -0.62731,-0.742986 -0.62856,-0.740442 0.42765,-0.868998 0.97171,-0.118237 1.25235,-0.202306 1.44675,-0.433335 l 0.16104,-0.19151 v -0.701929 -0.701929 l -0.14682,-0.215328 c -0.0805,-0.118377 -0.22939,-0.27668 -0.33027,-0.351627 l -0.18357,-0.136283 -0.92363,-0.01968 -0.92366,-0.01968 -0.21255,0.132783 -0.21205,0.132783 -0.15871,0.358918 c -0.31161,0.704484 -0.62118,0.240805 -1.43503,-2.149077 -1.56969,-4.609496 -1.86056,-4.731646 -11.30327,-4.747199 l -4.98333,-0.0089 -0.80177,0.211522 c -1.32991,0.350874 -1.72484,0.554454 -2.32507,1.198817 l -0.39076,0.419553 -0.49649,1.104461 c -0.27296,0.607451 -0.66468,1.573483 -0.87022,2.146739 -0.80863,2.255272 -1.05215,2.560493 -1.36426,1.709866 -0.0622,-0.170253 -0.17657,-0.35345 -0.25294,-0.407107 l -0.13949,-0.09752 -0.81609,2.36e-4 c -1.55604,7.4e-4 -1.85035,0.264011 -1.76254,1.576836 l 0.0445,0.63261 0.12482,0.138207 c 0.19911,0.220143 0.52964,0.323044 1.26521,0.393992 1.16443,0.112387 1.15737,0.103848 0.63164,0.762915 -0.74455,0.933412 -1.09369,1.587714 -1.24403,2.331477 l -0.0912,0.449873 -0.0234,4.201677 -0.0234,4.201672 0.11917,0.276011 c 0.30986,0.717838 0.80361,0.912479 2.33899,0.922438 l 1.02807,0.0075 z m 7.63878,-6.104844 c -0.17733,-0.02978 -0.4853,-0.13616 -0.68396,-0.236635 l -0.36142,-0.182604 -0.18279,-0.358296 -0.18279,-0.358298 0.0354,-0.191146 c 0.10923,-0.563021 0.073,-0.558347 4.38014,-0.566278 l 3.81168,-0.0075 0.17243,0.127924 c 0.0947,0.07037 0.21462,0.202435 0.26628,0.293484 l 0.0937,0.165516 -0.0795,0.264944 c -0.17037,0.568304 -0.73349,0.941017 -1.59014,1.052285 -0.57526,0.07477 -5.23019,0.07153 -5.68106,-0.0044 z m -7.18029,-0.710261 -1.70533,-0.03467 -0.18357,-0.13483 c -0.10099,-0.07421 -0.23508,-0.235419 -0.29783,-0.358296 l -0.11398,-0.22338 -1.4e-4,-0.897807 -1e-4,-0.897784 0.0888,-0.212662 c 0.26985,-0.645817 0.47687,-0.666218 2.35048,-0.231614 2.45396,0.569229 3.01623,0.933936 3.231,2.095723 l 0.0652,0.354742 -0.064,0.168959 c -0.0355,0.093 -0.12406,0.228765 -0.19703,0.301843 l -0.13277,0.13292 -0.66768,-0.01482 c -0.3672,-0.0075 -1.43515,-0.02978 -2.37311,-0.0489 z m 17.08625,-0.08663 c -0.0936,-0.09356 -0.17293,-0.237439 -0.17683,-0.31967 -0.0122,-0.350381 0.0267,-0.622167 0.14682,-0.942633 l 0.12819,-0.34136 0.3165,-0.284682 c 0.40633,-0.36541 0.7276,-0.481831 2.67704,-0.970366 l 1.60038,-0.401058 0.25217,0.124991 c 0.13872,0.06871 0.31251,0.20769 0.38631,0.308686 l 0.1346,0.18369 0.0234,1.002047 0.0234,1.002066 -0.10802,0.228221 -0.10847,0.228274 -0.28181,0.136465 -0.28184,0.136465 -2.27782,0.03956 -2.27777,0.03956 z m -9.51806,-5.887721 c -0.17917,-0.01161 -1.16744,-0.06509 -2.19628,-0.119277 -2.73083,-0.143662 -5.04829,-0.406041 -5.19987,-0.588683 l -0.0749,-0.0902 0.17787,-0.539678 c 0.21205,-0.642922 1.0962,-3.061331 1.47178,-4.024795 0.14683,-0.376209 0.36896,-0.85441 0.49439,-1.062695 l 0.22758,-0.3787 0.33518,-0.222448 c 0.19651,-0.130614 0.55018,-0.278237 0.8559,-0.357543 l 0.52091,-0.135151 1.88909,-0.06623 c 3.04265,-0.106642 9.88028,0.03777 10.6604,0.225012 0.79991,0.192053 1.11797,0.498973 1.61887,1.562128 0.60554,1.285263 1.88257,4.879323 1.80532,5.080751 -0.14239,0.370566 -9.58565,0.908777 -12.58627,0.717324 z"
         id="path25"
         sodipodi:nodetypes="cccccccccccccccccccsccccccsscccccscccccssccssccscccccccssccccsccccccccccccccssccccsccccsscccsccccccccsscccccccccccccccsccccccscsssccc" /><path
         id="lpe_path-effect25"
         style="fill:#ffffff;fill-opacity:1;stroke:#4f5617;stroke-width:0.582012;stroke-dasharray:none;stroke-opacity:1"
         class="powerclip"
         d="m 145.53139,19.116382 h 48.90107 v 50.3249 h -48.90107 z m 13.8233,36.165281 c 0.31918,-0.13367 0.60829,-0.406217 0.75695,-0.713301 l 0.13429,-0.276947 0.0446,-0.666234 0.0445,-0.66625 0.0886,-0.07329 0.0886,-0.07329 9.44124,-0.01733 9.44126,-0.01733 0.11596,0.128381 0.11597,0.128384 0.0354,0.708875 0.0354,0.708863 0.19392,0.279747 0.19391,0.279701 0.35344,0.17916 0.3534,0.17916 h 1.05496 1.05498 l 0.28049,-0.099 c 0.43075,-0.152019 0.71091,-0.402793 0.89996,-0.806026 l 0.17113,-0.365279 -0.001,-0.977122 c -7.9e-4,-0.537432 -0.0182,-2.486813 -0.0402,-4.331962 l -0.0399,-3.354829 -0.10725,-0.388258 c -0.15768,-0.571848 -0.59644,-1.348 -1.09521,-1.938762 -0.62731,-0.742986 -0.62856,-0.740442 0.42765,-0.868998 0.97171,-0.118237 1.25235,-0.202306 1.44675,-0.433335 l 0.16104,-0.19151 v -0.701929 -0.701929 l -0.14682,-0.215328 c -0.0805,-0.118377 -0.22939,-0.27668 -0.33027,-0.351627 l -0.18357,-0.136283 -0.92363,-0.01968 -0.92366,-0.01968 -0.21255,0.132783 -0.21205,0.132783 -0.15871,0.358918 c -0.31161,0.704484 -0.62118,0.240805 -1.43503,-2.149077 -1.56969,-4.609496 -1.86056,-4.731646 -11.30327,-4.747199 l -4.98333,-0.0089 -0.80177,0.211522 c -1.32991,0.350874 -1.72484,0.554454 -2.32507,1.198817 l -0.39076,0.419553 -0.49649,1.104461 c -0.27296,0.607451 -0.66468,1.573483 -0.87022,2.146739 -0.80863,2.255272 -1.05215,2.560493 -1.36426,1.709866 -0.0622,-0.170253 -0.17657,-0.35345 -0.25294,-0.407107 l -0.13949,-0.09752 -0.81609,2.36e-4 c -1.55604,7.4e-4 -1.85035,0.264011 -1.76254,1.576836 l 0.0445,0.63261 0.12482,0.138207 c 0.19911,0.220143 0.52964,0.323044 1.26521,0.393992 1.16443,0.112387 1.15737,0.103848 0.63164,0.762915 -0.74455,0.933412 -1.09369,1.587714 -1.24403,2.331477 l -0.0912,0.449873 -0.0234,4.201677 -0.0234,4.201672 0.11917,0.276011 c 0.30986,0.717838 0.80361,0.912479 2.33899,0.922438 l 1.02807,0.0075 z m 7.63878,-6.104844 -0.002,-0.001 c 0.45087,0.07593 5.1058,0.07917 5.68106,0.0044 0.85665,-0.111268 1.41977,-0.483981 1.59014,-1.052285 l 0.0795,-0.264944 -0.0937,-0.165516 c -0.0517,-0.09105 -0.17158,-0.223114 -0.26628,-0.293484 l -0.17243,-0.127924 -3.81168,0.0075 c -4.30714,0.0079 -4.27091,0.0033 -4.38014,0.566278 l -0.0354,0.191146 0.18279,0.358298 0.18279,0.358296 0.36142,0.182604 c 0.19866,0.100475 0.50663,0.206855 0.68396,0.236635 z m -7.18029,-0.710261 -6e-5,-5.76e-4 c 0.93796,0.01912 2.00591,0.0414 2.37311,0.0489 l 0.66768,0.01482 0.13277,-0.13292 c 0.073,-0.07308 0.16153,-0.208843 0.19703,-0.301843 l 0.064,-0.168959 -0.0652,-0.354742 c -0.21477,-1.161787 -0.77704,-1.526494 -3.231,-2.095723 -1.87361,-0.434604 -2.08063,-0.414203 -2.35048,0.231614 l -0.0888,0.212662 1e-4,0.897784 1.4e-4,0.897807 0.11398,0.22338 c 0.0627,0.122877 0.19684,0.284086 0.29783,0.358296 l 0.18357,0.13483 z m 17.08625,-0.08663 0.17625,0.170256 2.27777,-0.03956 2.27782,-0.03956 0.28184,-0.136465 0.28181,-0.136465 0.10847,-0.228274 0.10802,-0.228221 -0.0234,-1.002066 -0.0234,-1.002047 -0.1346,-0.18369 c -0.0738,-0.100996 -0.24759,-0.239976 -0.38631,-0.308686 l -0.25217,-0.124991 -1.60038,0.401058 c -1.94944,0.488535 -2.27071,0.604956 -2.67704,0.970366 l -0.3165,0.284682 -0.12819,0.34136 c -0.12012,0.320466 -0.15902,0.592252 -0.14682,0.942633 0.004,0.08223 0.0832,0.22611 0.17683,0.31967 z m -9.51806,-5.887721 -3e-5,-1.85e-4 c 3.00062,0.191453 12.44388,-0.346758 12.58627,-0.717324 0.0772,-0.201428 -1.19978,-3.795488 -1.80532,-5.080751 -0.5009,-1.063155 -0.81896,-1.370075 -1.61887,-1.562128 -0.78012,-0.187242 -7.61775,-0.331654 -10.6604,-0.225012 l -1.88909,0.06623 -0.52091,0.135151 c -0.30572,0.07931 -0.65939,0.226929 -0.8559,0.357543 l -0.33518,0.222448 -0.22758,0.3787 c -0.12543,0.208285 -0.34756,0.686486 -0.49439,1.062695 -0.37558,0.963464 -1.25973,3.381873 -1.47178,4.024795 l -0.17787,0.539678 0.0749,0.0902 c 0.15158,0.182642 2.46904,0.445021 5.19987,0.588683 1.02884,0.05419 2.01711,0.107667 2.19628,0.119277 z" /></clipPath></defs><g
     inkscape:label="Layer 1"
     inkscape:groupmode="layer"
     id="layer1"
     transform="translate(-150.53139,-24.116382)"><g
       id="g1"
       clip-path="url(#clipPath25)"
       inkscape:path-effect="#path-effect25"><path
         fill="#798b26"
         d="m 162.92339,45.876287 a 3.6750625,3.6750625 0 0 1 0.37307,-0.15875 c 0.20902,-0.0926 0.3757,-0.264583 0.5715,-0.338667 -0.10584,-0.08467 -0.28311,-0.195791 -0.45244,-0.322791 -0.37571,0.452437 -1.01336,-0.404813 -0.78052,-0.582084 0.23283,-0.17727 0.83343,0.08202 0.84931,0.391584 a 0.35454166,0.35454166 0 0 0 0.30692,-0.132292 c 0.23548,-0.238125 0.30427,-0.891646 -0.17463,-1.023937 a 0.87577082,0.87577082 0 0 0 0,-0.08731 l -0.58473,-0.03175 c -0.11112,0.346604 -0.33866,0.201083 -0.54239,-0.03175 -0.79375,-0.04763 -1.70127,-0.113771 -2.71198,-0.203729 -4.1619,-0.365125 -9.41652,0.706437 -8.70744,3.630083 0.32544,1.322917 2.8866,5.664729 2.74108,6.865938 -0.14552,1.201208 -1.1086,2.034645 0.72761,3.421062 1.49489,1.127125 3.33375,0.907521 5.47687,1.217083 a 4.1354374,4.1354374 0 0 1 0.0767,-2.116666 c 0.36513,-1.412875 2.29658,-5.225521 4.46617,-8.321146 -0.0185,-0.119062 -0.0317,-0.235479 -0.045,-0.314854 a 1.0583333,1.0583333 0 0 1 -0.33073,0.142875 c 0.11377,0.0635 -0.42333,-0.164042 -0.30163,-0.127 a 0.55827083,0.55827083 0 0 1 0.33338,-0.216958 c -0.0556,-0.01587 -0.11113,-0.07673 -0.15875,-0.09525 0.14023,-0.309563 -0.67469,-0.529167 -0.96308,-0.211667 -0.51594,0.563562 -0.87842,-0.01852 -0.92075,-0.08731 -0.18521,-0.288395 1.48166,-0.470958 1.48166,-0.470958 0.26459,-0.156104 0.34661,-0.264583 0.34661,-0.354542 0,-0.08996 -0.97102,-0.36777 -1.07686,-0.439208 z"
         data-color="1"
         id="path17"
         style="stroke-width:0.264583"
         inkscape:original-d="m 162.92339,45.876287 a 3.6750625,3.6750625 0 0 1 0.37307,-0.15875 c 0.20902,-0.0926 0.3757,-0.264583 0.5715,-0.338667 -0.10584,-0.08467 -0.28311,-0.195791 -0.45244,-0.322791 -0.37571,0.452437 -1.01336,-0.404813 -0.78052,-0.582084 0.23283,-0.17727 0.83343,0.08202 0.84931,0.391584 a 0.35454166,0.35454166 0 0 0 0.30692,-0.132292 c 0.23548,-0.238125 0.30427,-0.891646 -0.17463,-1.023937 a 0.87577082,0.87577082 0 0 0 0,-0.08731 l -0.58473,-0.03175 c -0.11112,0.346604 -0.33866,0.201083 -0.54239,-0.03175 -0.79375,-0.04763 -1.70127,-0.113771 -2.71198,-0.203729 -4.1619,-0.365125 -9.41652,0.706437 -8.70744,3.630083 0.32544,1.322917 2.8866,5.664729 2.74108,6.865938 -0.14552,1.201208 -1.1086,2.034645 0.72761,3.421062 1.49489,1.127125 3.33375,0.907521 5.47687,1.217083 a 4.1354374,4.1354374 0 0 1 0.0767,-2.116666 c 0.36513,-1.412875 2.29658,-5.225521 4.46617,-8.321146 -0.0185,-0.119062 -0.0317,-0.235479 -0.045,-0.314854 a 1.0583333,1.0583333 0 0 1 -0.33073,0.142875 c 0.11377,0.0635 -0.42333,-0.164042 -0.30163,-0.127 a 0.55827083,0.55827083 0 0 1 0.33338,-0.216958 c -0.0556,-0.01587 -0.11113,-0.07673 -0.15875,-0.09525 0.14023,-0.309563 -0.67469,-0.529167 -0.96308,-0.211667 -0.51594,0.563562 -0.87842,-0.01852 -0.92075,-0.08731 -0.18521,-0.288395 1.48166,-0.470958 1.48166,-0.470958 0.26459,-0.156104 0.34661,-0.264583 0.34661,-0.354542 0,-0.08996 -0.97102,-0.36777 -1.07686,-0.439208 z" /><path
         fill="#798b26"
         d="m 165.59568,41.129662 c -0.20108,0 -0.29897,0.02646 -0.36512,-0.264583 -0.0132,-0.06085 0.4154,-0.79375 0.43921,0 a 2.7675416,2.7675416 0 0 0 0.39952,0.03175 1.9023541,1.9023541 0 0 0 -0.0556,-0.219604 c 0.38629,0.362479 0.36777,0.542395 0.87577,0.642937 a 0.52916666,0.52916666 0 0 1 0.55562,-0.439208 c 0,-0.605896 -0.28839,-1.148292 -0.38629,-1.722438 -0.57944,-0.439208 0.2831,-1.031875 0.26458,-1.016 0.47625,-0.08731 0.30692,0.976313 0,1.0795 0.0847,0.174625 0.4498,1.558396 0.64294,1.455209 -0.11377,-0.182563 0.28311,-0.193146 0.52917,-0.20373 -0.0238,-0.05292 -0.0317,-0.129645 -0.0529,-0.187854 a 0.35454166,0.35454166 0 0 0 0.1905,0.03969 c -0.20108,-0.706438 -0.40481,-1.468438 -0.57944,-2.225146 -0.57943,-2.502958 -2.91041,-8.143875 -2.2516,-10.220854 -1.32292,-0.402167 -2.7014,-0.85725 -3.07181,-0.846667 -0.4789,0.01323 -0.29104,-0.169333 -0.94721,-0.357187 -0.65617,-0.187854 -2.91042,0.34925 -4.01902,1.55575 -1.10861,1.2065 -2.21721,1.531937 -2.87338,2.611437 -0.65616,1.0795 -1.50283,3.402542 -2.25689,4.130146 -0.75407,0.727604 -1.96586,3.926417 -2.05846,5.185833 -0.18256,2.524125 0.20373,3.614209 1.17475,4.0005 1.66423,-1.148291 4.89479,-1.539875 7.6491,-1.296458 1.03717,0.0926 1.95527,0.161396 2.77284,0.209021 -0.127,-0.127 -0.35984,-0.600604 -0.29105,-0.754063 0.11113,-0.264583 0.52917,0.0344 0.60325,0.264584 l -0.0556,-0.02911 a 0.57943749,0.57943749 0 0 1 0.21696,0.28575 c 0.65881,0.195792 1.26206,-0.230187 1.85208,-0.460375 0,-0.02117 -0.0185,-0.03969 0,-0.06085 a 3.2914166,3.2914166 0 0 1 0.69586,0.185209 c -0.0556,-0.182563 -0.23813,-0.889 -0.2884,-1.071563 0.33867,0.171979 0.67469,0.529167 1.08215,0.370417 0.0132,-0.129646 -0.19315,-0.672042 -0.39159,-0.672042 z m 4.61434,8.003646 0.0741,0.645583 c 0.26458,0.129646 0.74083,1.058333 0.14023,0.862542 -0.20902,-0.06879 -0.67733,-0.584729 -0.39952,-0.830792 -0.24871,-0.336021 -0.31485,-0.682625 -0.62706,-0.947208 -0.29898,-0.05556 -0.42334,0.227542 -0.4789,0.351896 a 0.57943749,0.57943749 0 0 0 0.14817,0.404812 0.91016666,0.91016666 0 0 0 0.38364,0.161396 v 0.301625 c 0.082,0.113771 -0.46037,0.378354 -0.89958,0.134938 -0.15875,-0.08731 -0.18256,-0.67998 -0.12171,-0.611188 a 1.4525625,1.4525625 0 0 0 -0.75406,-0.441854 5.5218541,5.5218541 0 0 1 -0.0847,0.873125 1.5875,1.5875 0 0 1 0.18521,0.333375 c -0.14023,0.404812 -0.55827,0.232833 -0.48683,-0.121708 0.0397,-0.209021 0.10054,-0.28575 0.15875,-0.293688 -0.0556,-0.264583 -0.15611,-0.529167 -0.23284,-0.759354 a 0.69320832,0.69320832 0 0 0 -0.33337,0.1905 c -0.29369,-0.161396 -0.68792,0.351896 -0.62442,0.587375 0.46567,-0.246063 -0.082,0.756708 -0.68262,0.812271 -0.43127,0.03969 0.26458,-0.767292 0.24606,-0.756709 -0.127,-0.312208 0.30956,-0.613833 0.0873,-0.870479 a 0.35454166,0.35454166 0 0 0 -0.41804,0.468313 h 0.0238 c 0.082,0.06615 -0.76729,0.193146 -0.64029,-0.402167 0,0 0.2249,-0.148167 0.2249,-0.248708 0,-0.100542 -0.17992,-0.02646 -0.24606,-0.264584 a 0.33072916,0.33072916 0 0 1 -0.12436,0.01852 c -2.01083,3.008313 -3.70417,6.535208 -4.06135,7.836958 -0.59532,2.174875 0.32543,3.175 1.72508,4.532313 1.39965,1.357312 3.32581,2.823104 4.44765,3.259666 1.12183,0.436563 2.93687,-1.015999 4.84187,-1.299104 1.905,-0.283104 1.32292,0.3175 2.20663,-0.05556 0.8837,-0.373063 3.99785,-0.547688 5.79437,-2.431521 1.27529,-1.338792 0.96838,-3.791479 0.24871,-5.931958 -0.45508,-0.185209 -1.08744,-0.621771 -1.6219,-0.873125 -2.08227,-0.981604 -4.63814,-3.14325 -6.64368,-5.027083 -0.0503,0.07937 -0.14552,0.07408 -0.26459,0 -0.11906,-0.07408 -0.127,-0.232834 -0.14552,-0.383646 0,0 -0.0476,0.79375 -0.045,0.883708 l 0.0318,-0.0291 a 0.37835416,0.37835416 0 0 0 -0.0397,0.05821 c 0.33866,-0.0979 1.02393,0.425979 0.55297,0.510646 -0.61383,0.108479 -0.76464,-0.288396 -0.76464,-0.529167 0,-0.24077 0.0238,-0.965729 0.0238,-0.965729 -0.33073,0.07673 -0.67733,0.28575 -1.00277,0.214313 z m 3.45016,-1.23825 c -0.3175,-0.288396 -0.34395,0.216958 0.0318,0.677333 -0.28839,-0.06615 -0.52916,-0.41275 -0.72495,-0.5715 -0.24871,-0.193146 -0.24607,-0.171979 -0.44715,-0.325437 -0.20108,-0.153459 -0.52917,0.127 -0.34925,0.05027 -0.14552,0 -0.12435,0.219604 -0.24871,0.224895 1.86796,1.643063 4.70165,4.323292 6.76275,5.389563 3.175,1.640416 4.81806,1.772708 7.03792,0.566208 a 5.6567916,5.6567916 0 0 0 2.54529,-2.587625 l 0.14552,-0.264583 c 0.19844,-0.243417 0.21167,-0.775229 0.16933,-2.76225 -0.0238,-1.039813 -0.0529,-2.330979 0.0503,-2.680229 l 0.26459,-0.664104 a 4.7175208,4.7175208 0 0 0 0.508,-1.751542 c 0.12171,-1.005417 -0.18786,-1.783292 -0.57944,-2.767542 L 188.5616,39.74589 c -0.36777,-0.968375 -0.97632,-1.613958 -1.6219,-2.299229 l -0.95514,-1.0795 c -0.66146,-0.849312 -1.92882,-0.997479 -3.175,-0.883708 a 9.2604166,9.2604166 0 0 1 -1.51077,1.299104 c -1.32292,1.322917 -8.46667,5.291667 -8.23648,5.688542 0.0873,0.153458 0.79375,0.06085 0.84402,0.378354 a 0.36777083,0.36777083 0 0 1 -0.43657,0.388937 c -0.26458,-0.03175 -0.33866,-0.121708 -0.32014,-0.423333 -0.20373,0.150812 -0.70908,0.06615 -0.75671,0.351896 0.0608,-0.01323 0.13494,0.01588 0.21167,-0.01323 0,0 0.0423,0.164041 0.037,0.132291 a 1.7700625,1.7700625 0 0 1 0,0.333375 c 0.12435,-0.01852 0.26458,-0.04763 0.37306,-0.0635 -0.0608,0.108479 0.037,0.608542 0.0212,0.703792 a 1.2408958,1.2408958 0 0 0 0.33337,-0.103188 c -0.0291,0.182563 -0.26458,0.283105 -0.4101,0.41275 a 3.349625,3.349625 0 0 0 0.82021,-0.497416 c 0.2196,-0.182563 0.32808,-0.161396 0.52916,-0.298979 -0.0397,-0.243417 -0.09,-0.656167 0.26459,-0.674688 0.31485,-0.01323 0.52916,0.669396 0.55827,0.881063 0.0291,0.211666 -0.14288,0.928687 -0.49477,0.695854 a 0.74347916,0.74347916 0 0 1 -0.29369,-0.505354 c -0.26458,0.62177 -1.08215,0.79375 -1.41817,1.156229 -0.0159,0.304271 0.76994,0.116416 1.23296,0.238125 a 1.6430625,1.6430625 0 0 1 0.10848,-0.137584 l 0.23283,0.01323 c 0.14023,0.41275 0.36513,1.058333 -0.47889,1.058333 a 0.57414583,0.57414583 0 0 1 -0.0291,-0.542396 3.2781875,3.2781875 0 0 1 -1.13506,-0.161396 c 0.127,0.515938 0.15081,0.428625 0.55298,0.637646 -0.0767,0.124354 -0.0741,0.08467 -0.0265,0.243417 -0.0318,0.02646 -0.082,0.03969 -0.11641,0.06615 -0.0344,0.02646 0.0503,0.02381 0.045,0.0291 -0.0609,0.03704 -0.13493,0.148166 -0.20637,0.182562 a 3.175,3.175 0 0 0 0.7329,0.386292 c -0.10584,0.01588 -0.20109,0.07144 -0.30163,0.08731 a 3.1115,3.1115 0 0 0 0.63765,0.640292 c 0.12435,0.07408 0.4736,-0.0979 0.59795,0.298979 0,0 -0.24077,0.351896 -0.4736,0.34925 -0.30692,-0.05821 -0.63765,-0.820208 -0.63765,-0.820208 z m 0.62178,-4.193646 v 0.07937 c 0.0185,-0.03175 0.0185,-0.05821 0,-0.07937 z"
         data-color="1"
         id="path18"
         style="stroke-width:0.264583"
         inkscape:original-d="m 165.59568,41.129662 c -0.20108,0 -0.29897,0.02646 -0.36512,-0.264583 -0.0132,-0.06085 0.4154,-0.79375 0.43921,0 a 2.7675416,2.7675416 0 0 0 0.39952,0.03175 1.9023541,1.9023541 0 0 0 -0.0556,-0.219604 c 0.38629,0.362479 0.36777,0.542395 0.87577,0.642937 a 0.52916666,0.52916666 0 0 1 0.55562,-0.439208 c 0,-0.605896 -0.28839,-1.148292 -0.38629,-1.722438 -0.57944,-0.439208 0.2831,-1.031875 0.26458,-1.016 0.47625,-0.08731 0.30692,0.976313 0,1.0795 0.0847,0.174625 0.4498,1.558396 0.64294,1.455209 -0.11377,-0.182563 0.28311,-0.193146 0.52917,-0.20373 -0.0238,-0.05292 -0.0317,-0.129645 -0.0529,-0.187854 a 0.35454166,0.35454166 0 0 0 0.1905,0.03969 c -0.20108,-0.706438 -0.40481,-1.468438 -0.57944,-2.225146 -0.57943,-2.502958 -2.91041,-8.143875 -2.2516,-10.220854 -1.32292,-0.402167 -2.7014,-0.85725 -3.07181,-0.846667 -0.4789,0.01323 -0.29104,-0.169333 -0.94721,-0.357187 -0.65617,-0.187854 -2.91042,0.34925 -4.01902,1.55575 -1.10861,1.2065 -2.21721,1.531937 -2.87338,2.611437 -0.65616,1.0795 -1.50283,3.402542 -2.25689,4.130146 -0.75407,0.727604 -1.96586,3.926417 -2.05846,5.185833 -0.18256,2.524125 0.20373,3.614209 1.17475,4.0005 1.66423,-1.148291 4.89479,-1.539875 7.6491,-1.296458 1.03717,0.0926 1.95527,0.161396 2.77284,0.209021 -0.127,-0.127 -0.35984,-0.600604 -0.29105,-0.754063 0.11113,-0.264583 0.52917,0.0344 0.60325,0.264584 l -0.0556,-0.02911 a 0.57943749,0.57943749 0 0 1 0.21696,0.28575 c 0.65881,0.195792 1.26206,-0.230187 1.85208,-0.460375 0,-0.02117 -0.0185,-0.03969 0,-0.06085 a 3.2914166,3.2914166 0 0 1 0.69586,0.185209 c -0.0556,-0.182563 -0.23813,-0.889 -0.2884,-1.071563 0.33867,0.171979 0.67469,0.529167 1.08215,0.370417 0.0132,-0.129646 -0.19315,-0.672042 -0.39159,-0.672042 z m 4.61434,8.003646 0.0741,0.645583 c 0.26458,0.129646 0.74083,1.058333 0.14023,0.862542 -0.20902,-0.06879 -0.67733,-0.584729 -0.39952,-0.830792 -0.24871,-0.336021 -0.31485,-0.682625 -0.62706,-0.947208 -0.29898,-0.05556 -0.42334,0.227542 -0.4789,0.351896 a 0.57943749,0.57943749 0 0 0 0.14817,0.404812 0.91016666,0.91016666 0 0 0 0.38364,0.161396 v 0.301625 c 0.082,0.113771 -0.46037,0.378354 -0.89958,0.134938 -0.15875,-0.08731 -0.18256,-0.67998 -0.12171,-0.611188 a 1.4525625,1.4525625 0 0 0 -0.75406,-0.441854 5.5218541,5.5218541 0 0 1 -0.0847,0.873125 1.5875,1.5875 0 0 1 0.18521,0.333375 c -0.14023,0.404812 -0.55827,0.232833 -0.48683,-0.121708 0.0397,-0.209021 0.10054,-0.28575 0.15875,-0.293688 -0.0556,-0.264583 -0.15611,-0.529167 -0.23284,-0.759354 a 0.69320832,0.69320832 0 0 0 -0.33337,0.1905 c -0.29369,-0.161396 -0.68792,0.351896 -0.62442,0.587375 0.46567,-0.246063 -0.082,0.756708 -0.68262,0.812271 -0.43127,0.03969 0.26458,-0.767292 0.24606,-0.756709 -0.127,-0.312208 0.30956,-0.613833 0.0873,-0.870479 a 0.35454166,0.35454166 0 0 0 -0.41804,0.468313 h 0.0238 c 0.082,0.06615 -0.76729,0.193146 -0.64029,-0.402167 0,0 0.2249,-0.148167 0.2249,-0.248708 0,-0.100542 -0.17992,-0.02646 -0.24606,-0.264584 a 0.33072916,0.33072916 0 0 1 -0.12436,0.01852 c -2.01083,3.008313 -3.70417,6.535208 -4.06135,7.836958 -0.59532,2.174875 0.32543,3.175 1.72508,4.532313 1.39965,1.357312 3.32581,2.823104 4.44765,3.259666 1.12183,0.436563 2.93687,-1.015999 4.84187,-1.299104 1.905,-0.283104 1.32292,0.3175 2.20663,-0.05556 0.8837,-0.373063 3.99785,-0.547688 5.79437,-2.431521 1.27529,-1.338792 0.96838,-3.791479 0.24871,-5.931958 -0.45508,-0.185209 -1.08744,-0.621771 -1.6219,-0.873125 -2.08227,-0.981604 -4.63814,-3.14325 -6.64368,-5.027083 -0.0503,0.07937 -0.14552,0.07408 -0.26459,0 -0.11906,-0.07408 -0.127,-0.232834 -0.14552,-0.383646 0,0 -0.0476,0.79375 -0.045,0.883708 l 0.0318,-0.0291 a 0.37835416,0.37835416 0 0 0 -0.0397,0.05821 c 0.33866,-0.0979 1.02393,0.425979 0.55297,0.510646 -0.61383,0.108479 -0.76464,-0.288396 -0.76464,-0.529167 0,-0.24077 0.0238,-0.965729 0.0238,-0.965729 -0.33073,0.07673 -0.67733,0.28575 -1.00277,0.214313 z m 3.45016,-1.23825 c -0.3175,-0.288396 -0.34395,0.216958 0.0318,0.677333 -0.28839,-0.06615 -0.52916,-0.41275 -0.72495,-0.5715 -0.24871,-0.193146 -0.24607,-0.171979 -0.44715,-0.325437 -0.20108,-0.153459 -0.52917,0.127 -0.34925,0.05027 -0.14552,0 -0.12435,0.219604 -0.24871,0.224895 1.86796,1.643063 4.70165,4.323292 6.76275,5.389563 3.175,1.640416 4.81806,1.772708 7.03792,0.566208 a 5.6567916,5.6567916 0 0 0 2.54529,-2.587625 l 0.14552,-0.264583 c 0.19844,-0.243417 0.21167,-0.775229 0.16933,-2.76225 -0.0238,-1.039813 -0.0529,-2.330979 0.0503,-2.680229 l 0.26459,-0.664104 a 4.7175208,4.7175208 0 0 0 0.508,-1.751542 c 0.12171,-1.005417 -0.18786,-1.783292 -0.57944,-2.767542 L 188.5616,39.74589 c -0.36777,-0.968375 -0.97632,-1.613958 -1.6219,-2.299229 l -0.95514,-1.0795 c -0.66146,-0.849312 -1.92882,-0.997479 -3.175,-0.883708 a 9.2604166,9.2604166 0 0 1 -1.51077,1.299104 c -1.32292,1.322917 -8.46667,5.291667 -8.23648,5.688542 0.0873,0.153458 0.79375,0.06085 0.84402,0.378354 a 0.36777083,0.36777083 0 0 1 -0.43657,0.388937 c -0.26458,-0.03175 -0.33866,-0.121708 -0.32014,-0.423333 -0.20373,0.150812 -0.70908,0.06615 -0.75671,0.351896 0.0608,-0.01323 0.13494,0.01588 0.21167,-0.01323 0,0 0.0423,0.164041 0.037,0.132291 a 1.7700625,1.7700625 0 0 1 0,0.333375 c 0.12435,-0.01852 0.26458,-0.04763 0.37306,-0.0635 -0.0608,0.108479 0.037,0.608542 0.0212,0.703792 a 1.2408958,1.2408958 0 0 0 0.33337,-0.103188 c -0.0291,0.182563 -0.26458,0.283105 -0.4101,0.41275 a 3.349625,3.349625 0 0 0 0.82021,-0.497416 c 0.2196,-0.182563 0.32808,-0.161396 0.52916,-0.298979 -0.0397,-0.243417 -0.09,-0.656167 0.26459,-0.674688 0.31485,-0.01323 0.52916,0.669396 0.55827,0.881063 0.0291,0.211666 -0.14288,0.928687 -0.49477,0.695854 a 0.74347916,0.74347916 0 0 1 -0.29369,-0.505354 c -0.26458,0.62177 -1.08215,0.79375 -1.41817,1.156229 -0.0159,0.304271 0.76994,0.116416 1.23296,0.238125 a 1.6430625,1.6430625 0 0 1 0.10848,-0.137584 l 0.23283,0.01323 c 0.14023,0.41275 0.36513,1.058333 -0.47889,1.058333 a 0.57414583,0.57414583 0 0 1 -0.0291,-0.542396 3.2781875,3.2781875 0 0 1 -1.13506,-0.161396 c 0.127,0.515938 0.15081,0.428625 0.55298,0.637646 -0.0767,0.124354 -0.0741,0.08467 -0.0265,0.243417 -0.0318,0.02646 -0.082,0.03969 -0.11641,0.06615 -0.0344,0.02646 0.0503,0.02381 0.045,0.0291 -0.0609,0.03704 -0.13493,0.148166 -0.20637,0.182562 a 3.175,3.175 0 0 0 0.7329,0.386292 c -0.10584,0.01588 -0.20109,0.07144 -0.30163,0.08731 a 3.1115,3.1115 0 0 0 0.63765,0.640292 c 0.12435,0.07408 0.4736,-0.0979 0.59795,0.298979 0,0 -0.24077,0.351896 -0.4736,0.34925 -0.30692,-0.05821 -0.63765,-0.820208 -0.63765,-0.820208 z m 0.62178,-4.193646 v 0.07937 c 0.0185,-0.03175 0.0185,-0.05821 0,-0.07937 z" /><path
         fill="#798b26"
         d="m 182.41525,30.586016 c -1.54782,-1.180041 -1.9394,-1.693333 -3.32317,-2.293937 -1.38377,-0.600604 -1.23296,-0.529167 -2.74902,-1.5875 -1.51606,-1.058333 -2.96598,-3.153833 -5.41602,-2.44475 -2.45004,0.709083 -3.83646,1.2065 -4.59317,3.175 -0.75671,1.9685 1.63513,7.707312 2.2225,10.2235 0.15611,0.66675 0.33338,1.338791 0.51329,1.971146 0.26459,0.11377 0.71438,0.87577 1.17211,0.931333 a 9.1625207,9.1625207 0 0 0 -0.11113,-1.362604 c 0,0 -0.0212,-0.0979 -0.0423,-0.209021 -0.0688,-0.357188 0,-0.574146 0.28046,-0.22225 0.1561,0.201083 0.35719,0.854604 0.23812,1.058333 l 0.0265,0.01588 c -0.10583,0.148167 -0.20637,0.07408 -0.29369,-0.07937 a 1.6457083,1.6457083 0 0 0 0.2249,0.867834 0.89958332,0.89958332 0 0 0 0.16669,-0.293688 c 0.18785,0.04498 0.17462,0.232833 0.23812,0.410104 0.21431,-0.301625 0.36777,-0.701146 0.73819,-0.386291 a 1.74625,1.74625 0 0 1 0.94985,-0.923396 c 0,0 0.29105,-0.661459 0.46038,-0.322792 0.13494,0.264583 0.5715,0.812271 0.52917,1.082146 -0.10848,0.529167 -0.86784,0.460375 -0.9234,-0.243417 -0.0847,0.05292 0,0.103188 -0.14023,0.230188 -0.33337,0.330729 -0.56356,0.497416 -0.62971,0.727604 a 2.8680833,2.8680833 0 0 1 -0.19314,0.473604 c -0.0873,0.373063 0.49477,0.02381 0.70379,0.0291 l -0.0185,0.01852 a 0.38364583,0.38364583 0 0 1 0.21696,-0.02117 0.88370832,0.88370832 0 0 1 0.10847,0.174625 0.26458333,0.26458333 0 0 1 0.0476,0.142875 c 2.73579,-1.529291 6.77333,-4.106333 7.9375,-5.259916 0,0 2.02406,-1.338792 2.35744,-2.690813 0.33337,-1.35202 0.85195,-2.008187 -0.6985,-3.190875 z"
         data-color="1"
         id="path19"
         style="stroke-width:0.264583"
         inkscape:original-d="m 182.41525,30.586016 c -1.54782,-1.180041 -1.9394,-1.693333 -3.32317,-2.293937 -1.38377,-0.600604 -1.23296,-0.529167 -2.74902,-1.5875 -1.51606,-1.058333 -2.96598,-3.153833 -5.41602,-2.44475 -2.45004,0.709083 -3.83646,1.2065 -4.59317,3.175 -0.75671,1.9685 1.63513,7.707312 2.2225,10.2235 0.15611,0.66675 0.33338,1.338791 0.51329,1.971146 0.26459,0.11377 0.71438,0.87577 1.17211,0.931333 a 9.1625207,9.1625207 0 0 0 -0.11113,-1.362604 c 0,0 -0.0212,-0.0979 -0.0423,-0.209021 -0.0688,-0.357188 0,-0.574146 0.28046,-0.22225 0.1561,0.201083 0.35719,0.854604 0.23812,1.058333 l 0.0265,0.01588 c -0.10583,0.148167 -0.20637,0.07408 -0.29369,-0.07937 a 1.6457083,1.6457083 0 0 0 0.2249,0.867834 0.89958332,0.89958332 0 0 0 0.16669,-0.293688 c 0.18785,0.04498 0.17462,0.232833 0.23812,0.410104 0.21431,-0.301625 0.36777,-0.701146 0.73819,-0.386291 a 1.74625,1.74625 0 0 1 0.94985,-0.923396 c 0,0 0.29105,-0.661459 0.46038,-0.322792 0.13494,0.264583 0.5715,0.812271 0.52917,1.082146 -0.10848,0.529167 -0.86784,0.460375 -0.9234,-0.243417 -0.0847,0.05292 0,0.103188 -0.14023,0.230188 -0.33337,0.330729 -0.56356,0.497416 -0.62971,0.727604 a 2.8680833,2.8680833 0 0 1 -0.19314,0.473604 c -0.0873,0.373063 0.49477,0.02381 0.70379,0.0291 l -0.0185,0.01852 a 0.38364583,0.38364583 0 0 1 0.21696,-0.02117 0.88370832,0.88370832 0 0 1 0.10847,0.174625 0.26458333,0.26458333 0 0 1 0.0476,0.142875 c 2.73579,-1.529291 6.77333,-4.106333 7.9375,-5.259916 0,0 2.02406,-1.338792 2.35744,-2.690813 0.33337,-1.35202 0.85195,-2.008187 -0.6985,-3.190875 z" /></g><g
       id="g26"
       style="stroke:none"><path
         style="fill:#798b26;fill-opacity:1;stroke:none;stroke-width:0.582012;stroke-dasharray:none;stroke-opacity:1"
         d="m 168.28549,42.500773 c -3.79701,-0.11506 -8.1635,-0.513017 -8.31478,-0.757806 -0.0434,-0.07026 0.37425,-1.292001 1.16744,-3.414848 0.88794,-2.376397 1.01987,-2.600292 1.75038,-2.970467 0.53633,-0.271781 0.97003,-0.351932 2.16546,-0.400202 3.03662,-0.122608 10.38881,-0.0037 11.38448,0.184469 0.87874,0.16587 1.27693,0.581094 1.8648,1.944572 0.52925,1.227476 1.53076,4.024017 1.62203,4.529207 0.0302,0.167419 0.0278,0.170983 -0.15352,0.219795 -0.64234,0.172961 -3.37954,0.411885 -6.3599,0.555133 -1.4171,0.06811 -4.39913,0.132188 -5.12639,0.110141 z"
         id="path2" /><path
         style="fill:#798b26;fill-opacity:1;stroke:none;stroke-width:0.582012;stroke-dasharray:none;stroke-opacity:1"
         d="m 159.55676,48.439945 c -0.71123,-0.01717 -1.33532,-0.03404 -1.38687,-0.03751 -0.12207,-0.0081 -0.42016,-0.299447 -0.53322,-0.521081 -0.079,-0.154722 -0.0889,-0.276728 -0.0885,-1.08823 4.1e-4,-0.871048 0.006,-0.925317 0.1129,-1.155582 0.25457,-0.54677 0.53468,-0.555635 2.5095,-0.07943 2.21186,0.533371 2.7539,0.900077 2.98489,2.01938 0.0683,0.330694 0.0681,0.370757 -0.001,0.50802 -0.0414,0.08195 -0.12864,0.206166 -0.19399,0.276021 l -0.11886,0.127008 -0.99585,-0.0087 c -0.54773,-0.0047 -1.57779,-0.02276 -2.28902,-0.03994 z"
         id="path3" /><path
         style="fill:#798b26;fill-opacity:1;stroke:none;stroke-width:0.582012;stroke-dasharray:none;stroke-opacity:1"
         d="m 167.73129,49.185046 c -0.748,-0.02984 -0.86327,-0.04562 -1.15007,-0.157575 -0.51335,-0.200368 -0.61345,-0.281417 -0.79649,-0.644862 -0.13124,-0.260705 -0.15982,-0.363014 -0.14086,-0.504835 0.0335,-0.249854 0.14147,-0.392219 0.34348,-0.452629 0.25703,-0.0769 2.38098,-0.13124 5.25707,-0.134494 l 2.54334,-0.0029 0.19426,0.166279 c 0.30059,0.257284 0.34575,0.375935 0.25275,0.663897 -0.15659,0.484866 -0.64404,0.848743 -1.33096,0.993553 -0.38035,0.08018 -3.79058,0.128673 -5.17259,0.07355 z"
         id="path4" /><path
         style="fill:#798b26;fill-opacity:1;stroke:none;stroke-width:0.582012;stroke-dasharray:none;stroke-opacity:1"
         d="m 176.92722,48.349862 c -0.1555,-0.172125 -0.167,-0.205386 -0.167,-0.482546 0,-0.189163 0.042,-0.430735 0.11535,-0.662684 0.0993,-0.314445 0.14896,-0.396767 0.35792,-0.594233 0.47819,-0.451779 0.74703,-0.553493 2.91568,-1.103145 l 1.4261,-0.361448 0.2491,0.130415 c 0.13704,0.07173 0.30793,0.205563 0.37986,0.297405 l 0.13078,0.166986 0.0306,0.978519 c 0.0301,0.961922 0.0287,0.982718 -0.079,1.226127 -0.0996,0.225308 -0.1346,0.258875 -0.38843,0.372782 l -0.27894,0.125175 -2.187,0.04489 c -1.20286,0.02471 -2.22095,0.04527 -2.26245,0.04576 -0.0416,4.04e-4 -0.15064,-0.08232 -0.24246,-0.183996 z"
         id="path5" /><path
         style="fill:none;fill-opacity:0;stroke:none;stroke-width:0.582;stroke-dasharray:none;stroke-opacity:1"
         d="m 159.35459,55.281686 c 0.31918,-0.133669 0.60829,-0.406216 0.75694,-0.713299 l 0.1343,-0.276947 0.0446,-0.666233 0.0445,-0.66625 0.0886,-0.07329 0.0886,-0.07329 9.44124,-0.01734 9.44126,-0.01734 0.11596,0.128383 0.11596,0.128383 0.0354,0.708875 0.0354,0.708862 0.19393,0.279748 0.19391,0.279701 0.35343,0.179161 0.3534,0.17916 h 1.05497 1.05497 l 0.2805,-0.099 c 0.43075,-0.152019 0.71091,-0.402794 0.89996,-0.806028 l 0.17113,-0.365276 -10e-4,-0.977122 c -7.4e-4,-0.537434 -0.0182,-2.486815 -0.0402,-4.331962 l -0.0399,-3.354831 -0.10726,-0.388258 c -0.15767,-0.571847 -0.59643,-1.348 -1.0952,-1.938761 -0.62731,-0.742985 -0.62856,-0.740443 0.42765,-0.868997 0.97171,-0.118238 1.25234,-0.202307 1.44674,-0.433336 l 0.16105,-0.19151 V 40.91296 40.211031 l -0.14682,-0.215329 c -0.0805,-0.118376 -0.22939,-0.276679 -0.33027,-0.351627 l -0.18357,-0.136282 -0.92363,-0.01968 -0.92366,-0.01968 -0.21255,0.132783 -0.21205,0.132783 -0.15871,0.358918 c -0.31161,0.704483 -0.62118,0.240804 -1.43504,-2.149077 -1.56974,-4.609478 -1.86061,-4.731627 -11.30332,-4.74718 l -4.98333,-0.0089 -0.80177,0.211523 c -1.32991,0.350874 -1.72484,0.554453 -2.32507,1.198817 l -0.39076,0.419552 -0.4965,1.104462 c -0.27296,0.60745 -0.66468,1.573482 -0.87021,2.146738 -0.80863,2.255273 -1.05215,2.560492 -1.36426,1.709866 -0.0622,-0.170253 -0.17657,-0.353449 -0.25294,-0.407107 l -0.13949,-0.09752 -0.81609,2.36e-4 c -1.55604,7.51e-4 -1.85035,0.264011 -1.76254,1.576835 l 0.0445,0.632611 0.12482,0.138207 c 0.19911,0.220144 0.52963,0.323044 1.2652,0.393993 1.16444,0.112387 1.15738,0.103846 0.63165,0.762914 -0.74455,0.933413 -1.09369,1.587715 -1.24403,2.331478 l -0.0912,0.449872 -0.0234,4.201676 -0.0234,4.201673 0.11917,0.276011 c 0.30986,0.717839 0.8036,0.912477 2.33899,0.922439 l 1.02807,0.0075 z m 7.63878,-6.104843 c -0.17734,-0.02978 -0.4853,-0.136159 -0.68396,-0.236635 l -0.36142,-0.182604 -0.18279,-0.358296 -0.18279,-0.358297 0.0354,-0.191146 c 0.10924,-0.563021 0.073,-0.558348 4.38015,-0.566278 l 3.81167,-0.0075 0.17243,0.127925 c 0.0947,0.07037 0.21463,0.202435 0.26629,0.293484 l 0.0936,0.165515 -0.0794,0.264944 c -0.17037,0.568305 -0.7335,0.941017 -1.59015,1.052286 -0.57525,0.07477 -5.23018,0.07153 -5.68105,-0.0044 z m -7.1803,-0.71026 -1.70532,-0.03467 -0.18357,-0.134831 c -0.10099,-0.07421 -0.23509,-0.235419 -0.29783,-0.358296 l -0.11398,-0.22338 -1.4e-4,-0.897806 -10e-5,-0.897784 0.0888,-0.212663 c 0.26985,-0.645817 0.47687,-0.666218 2.35048,-0.231613 2.45396,0.569229 3.01623,0.933935 3.231,2.095722 l 0.0652,0.354743 -0.064,0.168959 c -0.0355,0.093 -0.12406,0.228765 -0.19703,0.301842 l -0.13277,0.132921 -0.66769,-0.01482 c -0.36719,-0.0075 -1.43514,-0.02978 -2.3731,-0.04891 z m 17.08626,-0.08663 c -0.0937,-0.09356 -0.17294,-0.237439 -0.17683,-0.319669 -0.0122,-0.350382 0.0267,-0.622168 0.14682,-0.942633 l 0.12819,-0.34136 0.3165,-0.284683 c 0.40633,-0.365409 0.7276,-0.481831 2.67704,-0.970366 l 1.60038,-0.401058 0.25216,0.124991 c 0.13873,0.06871 0.31252,0.207691 0.38631,0.308686 l 0.1346,0.18369 0.0234,1.002048 0.0234,1.002065 -0.10802,0.228222 -0.10848,0.228273 -0.2818,0.136465 -0.28184,0.136466 -2.27782,0.03956 -2.27777,0.03956 z m -9.51806,-5.887721 c -0.17917,-0.01161 -1.16744,-0.06509 -2.19628,-0.119277 -2.73083,-0.143661 -5.04829,-0.40604 -5.19987,-0.588682 l -0.0749,-0.0902 0.17787,-0.539677 c 0.21204,-0.642922 1.09619,-3.061331 1.47178,-4.024795 0.14682,-0.37621 0.36895,-0.854411 0.49439,-1.062696 l 0.22758,-0.3787 0.33518,-0.222448 c 0.1965,-0.130613 0.55018,-0.278236 0.8559,-0.357542 l 0.52091,-0.135151 1.88909,-0.06623 c 3.04265,-0.106642 9.88028,0.03777 10.6604,0.225012 0.79991,0.192054 1.11797,0.498973 1.61887,1.562129 0.60553,1.285263 1.88257,4.879323 1.80532,5.080751 -0.14239,0.370566 -9.58565,0.908776 -12.58627,0.717323 z"
         id="path1-1"
         sodipodi:nodetypes="cccccccccccccccccccsccccccsscccccscccccssccssccscccccccssccccsccccccccccccccssccccsccccsscccsccccccccsscccccccccccccccsccccccscsssccc" /></g></g></svg>
